<svg width="6" height="8" viewBox="0 0 6 8" fill="none" xmlns="http://www.w3.org/2000/svg">
<path d="M3.04004 1.07776C3.18266 1.0798 3.31892 1.13721 3.42004 1.2378L5.19006 3.14777C5.29147 3.25227 5.34827 3.39217 5.34827 3.53779C5.34827 3.6834 5.29147 3.8233 5.19006 3.9278C5.08512 4.03222 4.94309 4.09082 4.79504 4.09082C4.647 4.09082 4.50509 4.03222 4.40015 3.9278L3.58008 2.9278V7.00776C3.58141 7.08082 3.56818 7.15343 3.54114 7.22132C3.51409 7.28921 3.47381 7.35101 3.42261 7.40314C3.3714 7.45528 3.31031 7.4967 3.24292 7.52497C3.17553 7.55323 3.10323 7.56777 3.03015 7.56775C2.88337 7.56513 2.74349 7.50501 2.64062 7.40027C2.53776 7.29554 2.48008 7.15456 2.4801 7.00776V2.9278L1.4801 3.9278C1.42899 3.9792 1.3682 4.01996 1.30127 4.04779C1.23434 4.07563 1.16258 4.08997 1.09009 4.08997C1.0176 4.08997 0.945837 4.07563 0.878906 4.04779C0.811976 4.01996 0.751185 3.9792 0.700073 3.9278C0.595651 3.82286 0.537109 3.68082 0.537109 3.53278C0.537109 3.38474 0.595651 3.2427 0.700073 3.13776L2.62012 1.13776C2.67141 1.08676 2.73227 1.04638 2.79919 1.01893C2.86612 0.99147 2.9378 0.977501 3.01013 0.977788L3.04004 1.07776Z" fill="#00A288"/>
</svg>
