<svg width="6" height="7" viewBox="0 0 6 7" fill="none" xmlns="http://www.w3.org/2000/svg">
<path d="M2.8501 6.89771C2.70629 6.89197 2.57021 6.83111 2.47009 6.72772L0.700073 4.8277C0.595651 4.72276 0.537109 4.58072 0.537109 4.43268C0.537109 4.28464 0.595651 4.14266 0.700073 4.03772C0.80457 3.93631 0.944473 3.87958 1.09009 3.87958C1.2357 3.87958 1.37561 3.93631 1.4801 4.03772L2.30005 5.03772V0.947693C2.30267 0.800912 2.36291 0.661034 2.46765 0.558167C2.57239 0.455299 2.7133 0.397682 2.86011 0.397705C3.00598 0.397705 3.14588 0.455632 3.24902 0.558777C3.35217 0.661922 3.41016 0.801824 3.41016 0.947693V5.03772L4.41016 3.98773C4.51094 3.88165 4.64962 3.81991 4.7959 3.81616C4.94218 3.81241 5.08398 3.86693 5.19006 3.96771C5.29615 4.06849 5.35794 4.2073 5.36169 4.35358C5.36545 4.49986 5.31087 4.64159 5.21008 4.74768L3.29004 6.74768C3.18517 6.85008 3.04655 6.9106 2.90015 6.91772L2.8501 6.89771Z" fill="#ED2259"/>
</svg>
