<svg width="20" height="20" viewBox="0 0 20 20" fill="none" xmlns="http://www.w3.org/2000/svg">
<g id="Google" clip-path="url(#clip0_611_7238)">
<path id="Vector" d="M19.9895 10.1871C19.9895 9.36767 19.9214 8.76973 19.7742 8.14966H10.1992V11.848H15.8195C15.7062 12.7671 15.0943 14.1512 13.7346 15.0813L13.7155 15.2051L16.7429 17.4969L16.9527 17.5174C18.8789 15.7789 19.9895 13.221 19.9895 10.1871Z" fill="#1367F1"/>
<path id="Vector_2" d="M10.1993 19.9314C12.9527 19.9314 15.2643 19.0456 16.9527 17.5175L13.7346 15.0814C12.8734 15.6683 11.7176 16.078 10.1993 16.078C7.50242 16.078 5.21352 14.3396 4.39759 11.9368L4.27799 11.9467L1.13003 14.3274L1.08887 14.4392C2.76588 17.6946 6.2106 19.9314 10.1993 19.9314Z" fill="#298341"/>
<path id="Vector_3" d="M4.39748 11.9368C4.18219 11.3167 4.05759 10.6523 4.05759 9.96583C4.05759 9.27927 4.18219 8.61492 4.38615 7.99484L4.38045 7.86278L1.19304 5.44385L1.08876 5.49232C0.397576 6.84324 0.000976562 8.36026 0.000976562 9.96583C0.000976562 11.5714 0.397576 13.0884 1.08876 14.4393L4.39748 11.9368Z" fill="#946F02"/>
<path id="Vector_4" d="M10.1993 3.85336C12.1142 3.85336 13.406 4.66168 14.1425 5.33718L17.0207 2.59107C15.253 0.985496 12.9527 0 10.1993 0C6.2106 0 2.76588 2.23672 1.08887 5.49214L4.38626 7.99466C5.21352 5.59183 7.50242 3.85336 10.1993 3.85336Z" fill="#E42617"/>
</g>
<defs>
<clipPath id="clip0_611_7238">
<rect width="20" height="20" fill="white"/>
</clipPath>
</defs>
</svg>
