<svg width="41" height="41" viewBox="0 0 41 41" fill="none" xmlns="http://www.w3.org/2000/svg">
<g id="Group 4">
<path id="Vector" d="M36.0995 1.19995H4.2395C2.32307 1.19995 0.769531 2.75349 0.769531 4.66992V36.53C0.769531 38.4464 2.32307 39.9999 4.2395 39.9999H36.0995C38.0159 39.9999 39.5695 38.4464 39.5695 36.53V4.66992C39.5695 2.75349 38.0159 1.19995 36.0995 1.19995Z" fill="url(#paint0_linear_577_5719)" stroke="white"/>
<g id="Vector_2">
<path d="M10.7401 16.1699C10.2998 16.1699 9.87759 16.3448 9.56628 16.6561C9.25497 16.9674 9.08008 17.3897 9.08008 17.83V25.5999C9.08008 26.0402 9.25497 26.4624 9.56628 26.7737C9.87759 27.0851 10.2998 27.2599 10.7401 27.2599C11.1803 27.2599 11.6026 27.0851 11.9139 26.7737C12.2252 26.4624 12.4001 26.0402 12.4001 25.5999V17.83C12.4001 17.3897 12.2252 16.9674 11.9139 16.6561C11.6026 16.3448 11.1803 16.1699 10.7401 16.1699Z" fill="white"/>
<path d="M29.6 16.1699C29.1598 16.1699 28.7376 16.3448 28.4263 16.6561C28.115 16.9674 27.9401 17.3897 27.9401 17.83V25.5999C27.9401 26.0402 28.115 26.4624 28.4263 26.7737C28.7376 27.0851 29.1598 27.2599 29.6 27.2599C30.0403 27.2599 30.4626 27.0851 30.7739 26.7737C31.0852 26.4624 31.2601 26.0402 31.2601 25.5999V17.83C31.2601 17.612 31.2172 17.3961 31.1337 17.1947C31.0503 16.9933 30.928 16.8103 30.7739 16.6561C30.6197 16.502 30.4367 16.3797 30.2353 16.2963C30.0339 16.2129 29.818 16.1699 29.6 16.1699Z" fill="white"/>
<path d="M26.2701 16.1699H14.0701C13.9233 16.1699 13.7823 16.2275 13.6776 16.3304C13.5728 16.4333 13.5127 16.5731 13.5101 16.7199V25.5999C13.5108 26.2395 13.732 26.8593 14.1364 27.3547C14.5408 27.8502 15.1036 28.1911 15.73 28.3199V32.2499C15.7122 32.4794 15.7421 32.7101 15.8177 32.9276C15.8933 33.145 16.013 33.3444 16.1694 33.5134C16.3257 33.6823 16.5153 33.8171 16.7263 33.9093C16.9372 34.0015 17.1649 34.0491 17.3951 34.0491C17.6253 34.0491 17.853 34.0015 18.0639 33.9093C18.2748 33.8171 18.4644 33.6823 18.6207 33.5134C18.7771 33.3444 18.8968 33.145 18.9724 32.9276C19.048 32.7101 19.0779 32.4794 19.0601 32.2499V28.3699H21.2801V32.2499C21.2623 32.4794 21.2921 32.7101 21.3677 32.9276C21.4433 33.145 21.563 33.3444 21.7194 33.5134C21.8757 33.6823 22.0653 33.8171 22.2762 33.9093C22.4872 34.0015 22.7149 34.0491 22.9451 34.0491C23.1753 34.0491 23.403 34.0015 23.6139 33.9093C23.8248 33.8171 24.0144 33.6823 24.1707 33.5134C24.3271 33.3444 24.4468 33.145 24.5224 32.9276C24.598 32.7101 24.6278 32.4794 24.61 32.2499V28.3199C25.2365 28.1911 25.7994 27.8502 26.2038 27.3547C26.6082 26.8593 26.8294 26.2395 26.8301 25.5999V16.7199C26.8275 16.5731 26.7673 16.4333 26.6625 16.3304C26.5578 16.2275 26.4169 16.1699 26.2701 16.1699Z" fill="white"/>
<path d="M24.2 9.58997L25.56 8.23993C25.6114 8.18882 25.6522 8.12809 25.68 8.06116C25.7079 7.99423 25.7222 7.9224 25.7222 7.84991C25.7222 7.77743 25.7079 7.70566 25.68 7.63873C25.6522 7.5718 25.6114 7.51107 25.56 7.45996C25.4551 7.35554 25.3131 7.29688 25.165 7.29688C25.017 7.29688 24.875 7.35554 24.7701 7.45996L23.2 8.99994C22.2456 8.58455 21.2159 8.37018 20.175 8.37018C19.1341 8.37018 18.1045 8.58455 17.1501 8.99994L15.57 7.41992C15.4617 7.33817 15.3274 7.29856 15.1921 7.30841C15.0567 7.31826 14.9295 7.37688 14.8342 7.47345C14.7389 7.57002 14.6818 7.69797 14.6737 7.83344C14.6656 7.9689 14.7069 8.10269 14.79 8.20996L16.1401 9.55994C15.3287 10.0959 14.6635 10.8253 14.2044 11.6825C13.7453 12.5396 13.5066 13.4975 13.51 14.4699C13.51 14.6184 13.569 14.7609 13.674 14.8659C13.7791 14.9709 13.9215 15.03 14.07 15.03H26.2701C26.4186 15.03 26.561 14.9709 26.666 14.8659C26.771 14.7609 26.8301 14.6184 26.8301 14.4699C26.8285 13.5026 26.5875 12.5508 26.1286 11.6993C25.6697 10.8478 25.0071 10.1231 24.2 9.58997Z" fill="white"/>
<path d="M17.4001 12.84C17.7038 12.84 17.9501 12.5937 17.9501 12.29C17.9501 11.9862 17.7038 11.74 17.4001 11.74C17.0963 11.74 16.85 11.9862 16.85 12.29C16.85 12.5937 17.0963 12.84 17.4001 12.84Z" fill="#A6CE39"/>
<path d="M22.9401 12.84C23.2438 12.84 23.4901 12.5937 23.4901 12.29C23.4901 11.9862 23.2438 11.74 22.9401 11.74C22.6363 11.74 22.3901 11.9862 22.3901 12.29C22.3901 12.5937 22.6363 12.84 22.9401 12.84Z" fill="#A6CE39"/>
</g>
</g>
<defs>
<linearGradient id="paint0_linear_577_5719" x1="20.1695" y1="-19.92" x2="20.1695" y2="60.2399" gradientUnits="userSpaceOnUse">
<stop stop-color="#FBF9D1"/>
<stop offset="0.25" stop-color="#B9E370"/>
<stop offset="0.62" stop-color="#599D2B"/>
<stop offset="1" stop-color="#006221"/>
</linearGradient>
</defs>
</svg>
