<svg width="40" height="41" viewBox="0 0 40 41" fill="none" xmlns="http://www.w3.org/2000/svg">
<path d="M36.0995 1H4.2395C2.32307 1 0.769531 2.55354 0.769531 4.46997V36.33C0.769531 38.2464 2.32307 39.8 4.2395 39.8H36.0995C38.0159 39.8 39.5695 38.2464 39.5695 36.33V4.46997C39.5695 2.55354 38.0159 1 36.0995 1Z" fill="url(#paint0_radial_577_5722)" stroke="white" stroke-width="0.88"/>
<path d="M22.5496 22.6899L24.9696 20.28C26.8996 18.34 25.9696 14.48 25.9696 14.48C25.9696 14.48 22.1096 13.48 20.1796 15.48C18.7296 16.93 17.7697 17.92 17.7697 17.92C17.7697 17.92 15.3396 17.42 13.8896 18.87L21.6296 26.6C22.9996 25.11 22.5496 22.6899 22.5496 22.6899ZM21.5996 17.02C21.7769 16.8416 22.0032 16.7197 22.2498 16.67C22.4963 16.6203 22.7521 16.645 22.9847 16.7408C23.2172 16.8367 23.4161 16.9995 23.556 17.2085C23.696 17.4175 23.7707 17.6635 23.7707 17.915C23.7707 18.1666 23.696 18.4124 23.556 18.6215C23.4161 18.8305 23.2172 18.9932 22.9847 19.0891C22.7521 19.185 22.4963 19.2096 22.2498 19.1599C22.0032 19.1102 21.7769 18.9885 21.5996 18.8101C21.4796 18.6919 21.3843 18.551 21.3192 18.3956C21.2541 18.2403 21.2206 18.0735 21.2206 17.905C21.2206 17.7366 21.2541 17.5698 21.3192 17.4144C21.3843 17.2591 21.4796 17.1182 21.5996 17V17.02ZM14.4696 25.9301C15.6374 25.8958 16.7546 25.4454 17.6196 24.66L15.7296 22.77C14.4696 23.4 14.4696 25.9301 14.4696 25.9301Z" fill="white"/>
<defs>
<radialGradient id="paint0_radial_577_5722" cx="0" cy="0" r="1" gradientUnits="userSpaceOnUse" gradientTransform="translate(20.2695 -10.38) scale(44.87 44.8701)">
<stop stop-color="white"/>
<stop offset="1" stop-color="#1DBCC2"/>
</radialGradient>
</defs>
</svg>
