<svg width="41" height="40" viewBox="0 0 41 40" fill="none" xmlns="http://www.w3.org/2000/svg">
<path d="M36.0995 0.600098H4.2395C2.32307 0.600098 0.769531 2.1537 0.769531 4.07013V35.9301C0.769531 37.8465 2.32307 39.4001 4.2395 39.4001H36.0995C38.0159 39.4001 39.5695 37.8465 39.5695 35.9301V4.07013C39.5695 2.1537 38.0159 0.600098 36.0995 0.600098Z" fill="url(#paint0_linear_577_5721)" stroke="white"/>
<path d="M20.1199 10.2599L20.8699 8.96989C20.9802 8.77816 21.1273 8.61006 21.3026 8.47514C21.4778 8.34022 21.678 8.24114 21.8915 8.18357C22.1051 8.126 22.328 8.11108 22.5473 8.13963C22.7667 8.16817 22.9782 8.23958 23.1699 8.34989C23.3617 8.4602 23.5298 8.60722 23.6647 8.78251C23.7997 8.9578 23.8987 9.15792 23.9563 9.3715C24.0139 9.58507 24.0288 9.80791 24.0002 10.0273C23.9717 10.2466 23.9002 10.4582 23.7899 10.6499L16.58 23.1299H21.7899C22.174 23.1533 22.5463 23.2722 22.8727 23.476C23.1992 23.6797 23.4696 23.9619 23.6594 24.2967C23.8491 24.6315 23.9522 25.0083 23.9593 25.3931C23.9664 25.7779 23.8773 26.1584 23.7 26.4999H8.39996C7.97549 26.4672 7.57897 26.2754 7.28973 25.9631C7.0005 25.6507 6.83984 25.2406 6.83984 24.8149C6.83984 24.3892 7.0005 23.9791 7.28973 23.6667C7.57897 23.3543 7.97549 23.1626 8.39996 23.1299H12.6899L18.1799 13.6199L16.4699 10.6199C16.3425 10.4277 16.2559 10.2115 16.2152 9.9846C16.1745 9.75766 16.1807 9.52479 16.2333 9.30033C16.286 9.07587 16.3841 8.86458 16.5214 8.67942C16.6588 8.49426 16.8326 8.33916 17.0321 8.22367C17.2316 8.10818 17.4527 8.03472 17.6817 8.00785C17.9107 7.98098 18.1427 8.00127 18.3636 8.06742C18.5844 8.13358 18.7894 8.24423 18.9659 8.39256C19.1424 8.54089 19.2868 8.72374 19.39 8.92991L20.1199 10.2599Z" fill="white"/>
<path d="M13.6299 28.23L11.9999 31C11.8967 31.2062 11.7524 31.389 11.5759 31.5374C11.3994 31.6857 11.1945 31.7964 10.9736 31.8625C10.7528 31.9287 10.5207 31.949 10.2917 31.9221C10.0627 31.8952 9.84162 31.8218 9.64207 31.7063C9.44253 31.5908 9.26876 31.4357 9.13139 31.2505C8.99402 31.0654 8.89597 30.8541 8.84331 30.6296C8.79065 30.4051 8.78449 30.1723 8.82518 29.9453C8.86587 29.7184 8.95258 29.5022 9.07994 29.31L10.28 27.23C10.8707 27.0062 11.5187 26.9828 12.124 27.1635C12.7294 27.3442 13.2585 27.719 13.6299 28.23Z" fill="white"/>
<path d="M27.5599 23.1401H31.9399C32.3644 23.1728 32.7609 23.3645 33.0501 23.6769C33.3393 23.9893 33.5001 24.3993 33.5001 24.8251C33.5001 25.2508 33.3393 25.6608 33.0501 25.9732C32.7609 26.2856 32.3644 26.4773 31.9399 26.5101H29.5099L31.15 29.35C31.2773 29.5422 31.364 29.7585 31.4047 29.9854C31.4453 30.2123 31.4392 30.4452 31.3865 30.6696C31.3339 30.8941 31.2358 31.1054 31.0984 31.2906C30.9611 31.4757 30.7873 31.6308 30.5878 31.7463C30.3882 31.8618 30.1671 31.9352 29.9382 31.9621C29.7092 31.989 29.4771 31.9687 29.2563 31.9026C29.0354 31.8364 28.8304 31.7258 28.6539 31.5775C28.4774 31.4291 28.3331 31.2462 28.2299 31.04L21.9999 20.2701C21.4493 19.39 21.2084 18.3513 21.3152 17.3187C21.4221 16.2861 21.8708 15.3187 22.59 14.5701C23.7033 16.4701 25.37 19.3267 27.59 23.1401H27.5599Z" fill="white"/>
<defs>
<linearGradient id="paint0_linear_577_5721" x1="0.769531" y1="20.0001" x2="39.5695" y2="20.0001" gradientUnits="userSpaceOnUse">
<stop stop-color="#00BFFC"/>
<stop offset="1" stop-color="#0073F6"/>
</linearGradient>
</defs>
</svg>
