<svg width="18" height="19" viewBox="0 0 18 19" fill="none" xmlns="http://www.w3.org/2000/svg">
<path d="M3 8.1178C2.99945 6.995 3.38723 5.89992 4.10945 4.98473C4.83167 4.06954 5.85247 3.37969 7.03 3.01103C6.9844 2.75372 7.00132 2.49057 7.0796 2.23972C7.15788 1.98887 7.29565 1.7563 7.48341 1.55806C7.67117 1.35982 7.90444 1.20063 8.16714 1.09147C8.42983 0.982312 8.71569 0.925781 9.005 0.925781C9.29431 0.925781 9.58017 0.982312 9.84286 1.09147C10.1056 1.20063 10.3388 1.35982 10.5266 1.55806C10.7143 1.7563 10.8521 1.98887 10.9304 2.23972C11.0087 2.49057 11.0256 2.75372 10.98 3.01103C12.1557 3.3812 13.1743 4.0717 13.8946 4.98676C14.615 5.90182 15.0013 6.99609 15 8.1178V13.5218L18 15.3231V16.2238H0V15.3231L3 13.5218V8.1178ZM11 17.1245C11 17.6022 10.7893 18.0604 10.4142 18.3982C10.0391 18.736 9.53043 18.9258 9 18.9258C8.46957 18.9258 7.96086 18.736 7.58579 18.3982C7.21071 18.0604 7 17.6022 7 17.1245H11Z" fill="url(#paint0_linear_506_3)"/>
<defs>
<linearGradient id="paint0_linear_506_3" x1="5.40065" y1="22.3531" x2="15.382" y2="3.04257" gradientUnits="userSpaceOnUse">
<stop stop-color="#495D86"/>
<stop offset="1" stop-color="#919ECE"/>
</linearGradient>
</defs>
</svg>
