<svg width="19" height="19" viewBox="0 0 19 19" fill="none" xmlns="http://www.w3.org/2000/svg">
<rect width="19" height="19" fill="#CDCDCD"/>
<g id="Desktop - 1">
<rect width="1440" height="1551" transform="translate(-1346 -53)" fill="white"/>
<g id="Frame 65">
<g id="Frame 6" filter="url(#filter0_d_446_5299)">
<rect x="-1316" y="-25.9761" width="1380" height="86.8036" rx="12" fill="#F6F7F7" shape-rendering="crispEdges"/>
<rect x="-1315.5" y="-25.4761" width="1379" height="85.8036" rx="11.5" stroke="#F6F7F7" shape-rendering="crispEdges"/>
<g id="Frame 7">
<g id="settings">
<g id="Frame 5">
<path id="Vector" d="M18.0474 8.173C17.7425 7.86847 17.3299 7.69652 16.899 7.69452H16.3161C16.2092 7.34976 16.0725 7.01499 15.9073 6.69406L16.3161 6.28517C16.6136 5.97641 16.7817 5.56554 16.7859 5.13682C16.7835 4.70858 16.6114 4.29877 16.3074 3.99716L15.4375 3.1272C15.1318 2.82804 14.7212 2.66052 14.2935 2.66052C13.8658 2.66052 13.4551 2.82804 13.1494 3.1272L12.758 3.51868C12.4296 3.35428 12.0893 3.2147 11.7401 3.1011V2.53562C11.7429 2.32298 11.7018 2.11206 11.6195 1.91599C11.5371 1.71991 11.4153 1.54289 11.2616 1.39596C11.1128 1.24465 10.9355 1.12443 10.7398 1.04229C10.5442 0.960145 10.3342 0.917718 10.122 0.91748H8.88659C8.45743 0.91748 8.04588 1.08797 7.74242 1.39142C7.43896 1.69488 7.26846 2.10646 7.26846 2.53562V3.1011C6.92148 3.21316 6.58399 3.3528 6.25927 3.51868L5.85912 3.11849C5.70636 2.96931 5.52616 2.85114 5.32845 2.77051C4.93542 2.60953 4.49481 2.60953 4.10177 2.77051C3.90072 2.84466 3.71924 2.96366 3.57111 3.11849L2.70114 3.98846C2.40604 4.29621 2.24131 4.7061 2.24131 5.13247C2.24131 5.55884 2.40604 5.96872 2.70114 6.27648L3.11 6.68536C2.94631 7.00698 2.80957 7.34161 2.70114 7.68582H2.11833C1.69153 7.68685 1.28218 7.85557 0.978622 8.1556C0.826265 8.30539 0.705464 8.48417 0.623287 8.6814C0.54111 8.87862 0.499178 9.0903 0.500098 9.30396V10.5393C0.49773 10.7511 0.538106 10.9612 0.618827 11.157C0.699547 11.3528 0.818986 11.5304 0.969914 11.679C1.27473 11.9835 1.68746 12.1554 2.11833 12.1574H2.70985C2.82356 12.4982 2.96314 12.8298 3.12741 13.1492L2.70114 13.5755C2.55218 13.7251 2.43465 13.903 2.35547 14.0987C2.27628 14.2945 2.23702 14.504 2.24003 14.7151C2.23683 14.9276 2.27599 15.1385 2.35515 15.3357C2.43431 15.5328 2.55192 15.7123 2.70114 15.8635L3.57111 16.7335C3.72239 16.8845 3.90298 17.0029 4.10177 17.0815C4.50008 17.2463 4.94756 17.2463 5.34587 17.0815C5.54156 17.0019 5.71909 16.8835 5.86783 16.7335L6.30281 16.3072C6.61702 16.465 6.94274 16.5988 7.27717 16.7074V17.3163C7.27717 17.7455 7.44767 18.1571 7.75113 18.4605C8.05459 18.764 8.46614 18.9345 8.8953 18.9345H10.1133C10.5401 18.9334 10.9494 18.7647 11.253 18.4647C11.4061 18.3155 11.5275 18.1369 11.6097 17.9395C11.6919 17.7421 11.7333 17.5301 11.7314 17.3163V16.7074C12.0674 16.5996 12.3934 16.4628 12.7058 16.2985L13.1494 16.7422C13.4606 17.0271 13.8673 17.1851 14.2892 17.1851C14.711 17.1851 15.1176 17.0271 15.4288 16.7422L16.2987 15.8722C16.4488 15.723 16.5678 15.5454 16.6484 15.3497C16.7291 15.154 16.7699 14.9442 16.7685 14.7326C16.7698 14.3027 16.6009 13.8899 16.2987 13.5842L15.8724 13.1666C16.0367 12.8471 16.1763 12.5156 16.29 12.1748H16.8816C17.3084 12.1738 17.7177 12.0051 18.0212 11.7051C18.1744 11.5559 18.2958 11.3772 18.3781 11.1798C18.4603 10.9825 18.5017 10.7705 18.4998 10.5567V9.31266C18.5034 9.10222 18.4654 8.89315 18.3877 8.69753C18.3101 8.50191 18.1944 8.32363 18.0474 8.173ZM12.9232 9.91294C12.9232 10.8205 12.5634 11.691 11.9224 12.3336C11.2815 12.9762 10.4119 13.3383 9.50434 13.3406C8.82772 13.3429 8.16632 13.1396 7.60776 12.7577C7.04948 12.3852 6.61316 11.8566 6.35326 11.2377C6.09336 10.6189 6.02133 9.93732 6.14617 9.27786C6.28452 8.61923 6.61095 8.01485 7.0858 7.53793C7.562 7.06379 8.16705 6.74009 8.82574 6.60706C9.04634 6.56284 9.27064 6.53953 9.49563 6.53746C10.4024 6.53746 11.272 6.89767 11.9132 7.53886C12.5544 8.18004 12.9145 9.04966 12.9145 9.95643L12.9232 9.91294Z" fill="url(#paint0_linear_446_5299)"/>
</g>
</g>
</g>
</g>
</g>
</g>
<defs>
<filter id="filter0_d_446_5299" x="-1320" y="-29.9761" width="1388" height="94.8037" filterUnits="userSpaceOnUse" color-interpolation-filters="sRGB">
<feFlood flood-opacity="0" result="BackgroundImageFix"/>
<feColorMatrix in="SourceAlpha" type="matrix" values="0 0 0 0 0 0 0 0 0 0 0 0 0 0 0 0 0 0 127 0" result="hardAlpha"/>
<feOffset/>
<feGaussianBlur stdDeviation="2"/>
<feComposite in2="hardAlpha" operator="out"/>
<feColorMatrix type="matrix" values="0 0 0 0 0 0 0 0 0 0 0 0 0 0 0 0 0 0 0.25 0"/>
<feBlend mode="normal" in2="BackgroundImageFix" result="effect1_dropShadow_446_5299"/>
<feBlend mode="normal" in="SourceGraphic" in2="effect1_dropShadow_446_5299" result="shape"/>
</filter>
<linearGradient id="paint0_linear_446_5299" x1="5.90065" y1="22.3651" x2="15.8969" y2="3.04397" gradientUnits="userSpaceOnUse">
<stop stop-color="#495D86"/>
<stop offset="1" stop-color="#919ECE"/>
</linearGradient>
</defs>
</svg>
